<?xml version="1.0" encoding="UTF-8"?> <svg xmlns="http://www.w3.org/2000/svg" width="983.332" height="721.889" viewBox="0 0 983.332 721.889"><path id="Path_5" data-name="Path 5" d="M465.974-5.371C441.3-141.711,336.862-244.127,211.7-244.127c-97.944,0-183.16,62.751-227.449,155.355-147.833-4.914-251.13,13.555-250.218,52.719,1.215,51.783,127.719,115.981,220.91,136.616C-26.6,245.68,81.152,357.177,211.7,357.177c111.233,0,205.869-81.01,242.931-194.714,112.4,9.357,184.168-13.755,187.7-43.932C646.518,82.609,580.273,35.084,465.974-5.371ZM211.7-211.923c106.446,0,195.927,83.051,223.241,196.135C373.12-35.508,299.61-53.011,217.165-65.91c-30.376-4.748-60.22-8.736-89.334-12.029a250.405,250.405,0,0,1,38.316-76.376,224.6,224.6,0,0,1,24.14-27.09C138.622-176,88.616-148.461,51.991-99.47c-3.326,4.438-6.262,9.1-9.25,13.72Q29.2-86.673,16.054-87.391C57.224-162.171,129.376-211.923,211.7-211.923Zm0,536.907C83.552,324.983-20.329,204.79-20.329,56.525A309.854,309.854,0,0,1-16.07,5.843,110.992,110.992,0,0,1,7.586.309c-17.934,84.8,4.675,177.9,65.674,238.922,78.055,78.093,191.926,76.687,268.576,2.527-54.118,5.669-110.075-12.985-154.428-57.347C140.079,137.07,115.939,70.39,115.788,3.281c27.089,2.977,57.82,7.21,92.837,12.684C334.047,35.55,408.871,71.676,439.3,108.268,418.442,231.759,324.524,324.983,211.7,324.983Z" transform="translate(313.094 278.768) rotate(8)" fill="#222"></path></svg> 