<?xml version="1.0" standalone="no"?>
<!DOCTYPE svg PUBLIC "-//W3C//DTD SVG 20010904//EN"
 "http://www.w3.org/TR/2001/REC-SVG-20010904/DTD/svg10.dtd">
<svg version="1.0" xmlns="http://www.w3.org/2000/svg"
 width="983.000000pt" height="983.000000pt" viewBox="0 0 983.000000 983.000000"
 preserveAspectRatio="xMidYMid meet">
<metadata>
Created by potrace 1.14, written by Peter Selinger 2001-2017
</metadata>
<g transform="translate(0.000000,983.000000) scale(0.100000,-0.100000)"
fill="#000000" stroke="none">
<path d="M5108 7884 c-2 -1 -35 -5 -73 -8 -93 -6 -410 -65 -410 -76 0 -1 -7
-3 -15 -5 -61 -12 -302 -103 -311 -117 -3 -6 -8 -8 -10 -6 -18 14 -373 -190
-484 -278 -16 -14 -35 -28 -40 -32 -162 -118 -397 -354 -540 -542 -28 -36 -52
-67 -56 -70 -3 -3 -15 -22 -28 -43 -37 -60 -46 -66 -88 -57 -21 5 -56 11 -78
15 -22 3 -56 8 -75 11 -19 4 -44 7 -55 9 -45 6 -122 17 -145 21 -26 5 -69 11
-135 18 -22 3 -40 5 -40 6 0 1 -13 3 -30 5 -53 6 -139 16 -180 20 -22 3 -60 7
-84 11 -24 3 -71 7 -105 10 -33 2 -95 6 -136 9 -41 4 -109 8 -150 11 -93 6
-552 5 -600 -1 -19 -2 -62 -7 -96 -10 -33 -3 -71 -8 -85 -10 -26 -6 -54 -11
-106 -20 -60 -10 -194 -56 -242 -83 -125 -70 -172 -148 -164 -270 5 -86 57
-215 119 -299 13 -17 24 -34 24 -38 0 -25 224 -263 350 -371 25 -22 50 -43 56
-49 6 -5 26 -21 44 -35 18 -14 38 -30 44 -35 20 -19 159 -121 241 -177 67 -46
138 -90 322 -204 12 -8 43 -25 68 -39 25 -14 66 -37 92 -52 103 -58 345 -174
473 -227 74 -31 141 -60 149 -64 11 -6 15 -38 17 -133 2 -110 7 -187 18 -284
2 -16 6 -55 10 -85 3 -30 9 -66 12 -80 3 -14 7 -36 9 -50 9 -61 22 -126 40
-200 23 -94 38 -148 44 -165 5 -11 18 -51 30 -90 28 -87 81 -226 94 -242 5 -7
7 -13 3 -13 -6 0 143 -296 174 -345 11 -16 27 -43 36 -60 10 -16 34 -53 56
-82 21 -29 38 -57 38 -63 0 -5 4 -10 8 -10 4 0 15 -12 24 -27 10 -16 29 -41
43 -58 58 -67 65 -75 59 -75 -3 0 3 -8 13 -17 11 -10 57 -57 101 -105 45 -47
82 -85 82 -84 0 1 25 -21 55 -50 30 -29 101 -87 157 -129 57 -41 108 -80 115
-85 50 -40 283 -167 378 -206 33 -14 69 -29 80 -34 49 -21 230 -78 275 -86 8
-1 46 -9 83 -18 37 -8 87 -17 110 -20 23 -3 53 -8 66 -11 103 -21 412 -21 561
0 19 3 42 5 50 6 8 1 38 6 65 11 28 5 61 11 75 14 79 15 265 67 315 89 17 7
53 21 80 31 28 10 65 26 83 36 17 10 32 16 32 13 0 -9 304 157 320 175 3 3 35
25 73 49 37 24 67 48 67 54 0 6 3 8 6 4 3 -3 11 -1 18 4 6 5 22 19 36 30 14
11 37 31 52 45 15 13 30 24 32 24 2 0 32 26 67 57 276 253 487 526 666 863 25
47 47 86 48 87 1 2 35 -4 76 -13 41 -9 83 -18 94 -20 71 -14 125 -24 155 -28
19 -3 46 -8 60 -11 14 -2 43 -7 65 -10 78 -9 130 -16 165 -21 35 -5 92 -10
225 -19 80 -5 348 -5 414 0 62 5 144 15 172 20 13 3 38 7 54 10 17 2 57 12 90
21 33 9 70 19 83 21 12 3 22 10 22 16 0 6 3 7 6 4 11 -10 119 51 162 92 22 20
48 54 59 76 24 47 30 144 13 206 -51 188 -232 410 -530 648 -52 42 -97 78
-100 81 -3 3 -27 21 -55 39 -27 19 -52 37 -55 40 -5 6 -155 106 -260 173 -87
56 -331 198 -339 198 -5 0 -14 7 -21 15 -7 9 -15 13 -18 11 -3 -3 -17 3 -31
13 -14 10 -56 33 -93 52 -64 32 -68 36 -69 69 -1 19 -2 46 -4 60 -1 14 -6 59
-9 100 -11 117 -19 181 -33 245 -4 17 -7 39 -8 50 -1 11 -5 35 -9 52 -4 18 -7
35 -7 38 0 2 -9 34 -19 70 -10 36 -19 69 -20 73 0 4 -5 23 -10 42 -5 19 -10
40 -11 45 -1 6 -6 21 -11 35 -5 14 -11 32 -13 40 -3 16 -79 222 -94 255 -30
66 -156 321 -161 325 -4 3 -21 30 -38 60 -18 30 -38 64 -45 75 -21 34 -173
239 -208 280 -58 69 -283 294 -290 289 -4 -2 -9 2 -12 9 -6 15 -106 93 -237
182 -83 57 -350 201 -350 189 0 -4 -7 -1 -16 7 -21 17 -228 90 -324 114 -69
17 -215 45 -260 50 -30 4 -68 9 -85 11 -36 5 -363 12 -367 8z m332 -328 c30
-3 64 -8 75 -10 11 -2 45 -7 75 -12 58 -8 68 -10 73 -14 1 -1 11 -3 22 -5 42
-7 141 -33 170 -46 11 -4 43 -15 70 -24 70 -23 243 -103 330 -153 204 -117
410 -289 565 -472 30 -35 61 -71 68 -78 6 -7 33 -44 59 -80 26 -37 50 -69 53
-72 6 -5 32 -48 98 -159 102 -174 230 -481 267 -641 2 -8 4 -15 5 -15 2 0 2
-3 15 -60 3 -16 7 -34 9 -40 8 -27 16 -63 20 -90 3 -16 7 -41 10 -55 7 -38 17
-100 22 -145 2 -22 7 -50 9 -62 3 -13 1 -23 -4 -23 -4 0 -60 24 -122 54 -219
103 -462 207 -729 311 -102 40 -194 76 -205 80 -11 5 -22 9 -25 10 -3 1 -12 5
-20 8 -8 3 -42 16 -75 27 -397 142 -480 170 -503 176 -13 2 -40 11 -60 18 -57
22 -421 136 -447 140 -5 1 -35 10 -65 19 -138 42 -196 59 -211 62 -9 2 -34 8
-55 15 -64 18 -291 80 -314 85 -8 2 -16 4 -17 5 -3 3 -7 4 -55 13 -21 5 -38
11 -38 15 0 15 74 162 82 162 4 0 8 7 8 15 0 29 205 326 280 406 14 14 50 53
81 85 62 67 146 145 203 189 21 17 47 38 59 48 11 9 24 17 29 17 5 0 7 4 4 8
-7 12 -236 4 -311 -12 -11 -2 -45 -7 -75 -11 -30 -4 -59 -10 -65 -13 -5 -3
-20 -7 -33 -8 -26 -3 -191 -53 -207 -63 -5 -3 -12 -6 -15 -6 -18 -1 -121 -46
-215 -95 -194 -99 -369 -226 -525 -380 -49 -49 -90 -91 -90 -95 0 -3 -12 -16
-27 -29 -22 -19 -33 -22 -62 -15 -20 4 -47 10 -61 12 -102 19 -150 31 -150 38
0 17 131 170 240 279 119 119 176 169 270 238 30 23 60 45 65 49 6 5 50 34
100 66 182 118 461 238 655 283 97 22 239 46 304 50 44 4 82 7 83 8 5 4 251
-2 303 -8z m-2245 -1836 c2 -4 -4 -33 -15 -65 -22 -63 -76 -262 -85 -310 -25
-139 -35 -208 -39 -255 -3 -30 -6 -55 -6 -55 -1 0 -3 -39 -5 -87 -2 -48 -6
-92 -9 -97 -4 -5 -2 -12 4 -16 6 -4 7 -11 4 -17 -8 -12 -7 -136 1 -233 13
-161 42 -337 80 -485 3 -14 8 -36 11 -49 3 -14 8 -29 12 -35 3 -6 7 -15 8 -21
18 -92 151 -396 226 -515 100 -159 197 -289 286 -384 118 -124 271 -253 370
-311 9 -5 19 -12 22 -15 24 -24 288 -151 380 -183 82 -29 214 -63 276 -72 21
-4 50 -8 64 -10 145 -25 390 -22 540 5 30 5 67 12 81 14 136 23 329 92 494
176 114 58 278 160 270 168 -3 3 -28 6 -57 8 -29 2 -69 5 -88 8 -19 3 -51 8
-70 10 -19 3 -48 9 -65 12 -16 4 -39 8 -50 10 -11 1 -20 3 -20 4 0 1 -7 3 -15
5 -59 15 -137 38 -145 43 -5 4 -15 7 -20 8 -54 8 -287 124 -387 192 -26 17
-52 32 -57 32 -5 0 -11 3 -13 8 -1 4 -34 31 -73 61 -124 96 -375 357 -375 389
0 6 -4 12 -9 14 -13 5 -141 198 -141 213 0 8 -4 15 -9 17 -11 4 -99 181 -135
273 -16 39 -32 79 -37 90 -10 23 -67 210 -75 246 -7 31 -22 99 -27 124 -3 11
-8 40 -12 65 -3 25 -9 59 -11 75 -18 106 -27 236 -27 380 0 158 14 363 27 384
3 4 70 -10 148 -31 79 -22 150 -41 159 -43 14 -3 81 -21 117 -31 7 -2 14 -4
17 -4 3 -1 17 -5 32 -10 71 -22 340 -101 353 -105 8 -2 35 -10 60 -18 25 -8
79 -24 120 -37 41 -12 82 -24 90 -27 8 -2 17 -4 20 -5 3 0 14 -5 25 -11 11 -6
25 -12 30 -13 16 -3 226 -75 260 -89 17 -7 84 -34 150 -60 66 -26 124 -51 129
-56 6 -5 16 -9 22 -9 7 0 43 -14 81 -32 37 -18 70 -32 73 -33 6 -1 290 -142
310 -155 8 -5 56 -32 105 -60 123 -71 293 -185 395 -267 82 -66 280 -259 280
-274 0 -4 6 -14 13 -21 52 -54 72 -112 48 -142 -4 -6 -12 -24 -16 -41 -12 -42
-7 -30 -68 -175 -92 -221 -221 -443 -365 -630 -82 -106 -102 -129 -232 -259
-121 -122 -149 -147 -245 -220 -38 -29 -77 -58 -86 -64 -40 -31 -79 -57 -83
-57 -3 0 -30 -15 -59 -34 -79 -51 -187 -108 -187 -99 0 5 -4 2 -9 -5 -4 -7
-14 -14 -22 -16 -8 -1 -27 -9 -44 -18 -16 -8 -48 -21 -70 -28 -22 -7 -44 -16
-50 -20 -5 -5 -30 -14 -55 -21 -55 -16 -52 -14 -70 -22 -17 -7 -96 -29 -120
-33 -8 -1 -28 -5 -45 -8 -16 -2 -30 -5 -30 -6 0 -4 -63 -14 -160 -27 -122 -16
-446 -9 -560 12 -104 19 -187 37 -230 51 -27 8 -58 17 -68 19 -76 17 -352 144
-445 206 -24 16 -45 29 -48 29 -4 0 -42 27 -86 60 -43 33 -81 60 -83 60 -8 0
-106 90 -195 181 -126 129 -145 150 -215 244 -32 44 -61 82 -64 85 -9 7 -29
41 -43 70 -7 14 -16 27 -19 30 -27 21 -196 359 -234 470 -1 3 -5 12 -8 20 -6
15 -50 151 -52 160 -1 3 -8 30 -17 60 -10 30 -19 66 -22 80 -3 14 -11 48 -17
75 -6 28 -12 59 -14 70 -2 11 -6 34 -9 50 -12 62 -17 87 -21 123 -2 20 -7 66
-12 102 -13 108 -9 597 5 623 2 5 6 32 7 60 2 29 6 61 8 72 3 11 8 40 12 65 9
57 9 57 34 167 27 123 59 231 72 238 5 4 33 9 62 12 29 3 53 6 54 7 8 7 104 3
108 -4z"/>
</g>
</svg>
